<svg xmlns="http://www.w3.org/2000/svg" width="27" height="32" viewBox="0 0 27 32"><g transform="translate(0 0)"><path d="M27,151.1a1.565,1.565,0,0,0-1.572-1.554H23.653a1.577,1.577,0,0,0-.629.13v-2.719a.472.472,0,0,0-.944,0v8.456H4.919v-8.456a.472.472,0,0,0-.943,0v2.719a1.579,1.579,0,0,0-.629-.13H1.572A1.565,1.565,0,0,0,0,151.1v5a4.313,4.313,0,0,0,.837,2.565c0,.044,0,.088,0,.133a2.32,2.32,0,0,0,1.909,2.27v.315a1.512,1.512,0,0,0,.968,1.4v3.644a1.142,1.142,0,0,0-.968,1.122v.514A1.144,1.144,0,0,0,3.892,169.2H7.628a1.144,1.144,0,0,0,1.149-1.136v-.514a1.142,1.142,0,0,0-.968-1.122v-3.54H19.19v3.54a1.142,1.142,0,0,0-.968,1.122v.514a1.144,1.144,0,0,0,1.149,1.136h3.736a1.144,1.144,0,0,0,1.149-1.136v-.514a1.142,1.142,0,0,0-.968-1.122v-3.644a1.511,1.511,0,0,0,.968-1.4v-.315a2.32,2.32,0,0,0,1.909-2.27c0-.044,0-.089,0-.133A4.311,4.311,0,0,0,27,156.1ZM1.171,157.331A3.411,3.411,0,0,1,.943,156.1v-5a.626.626,0,0,1,.629-.621H3.347a.626.626,0,0,1,.629.621v4.325a3.431,3.431,0,0,0-2.8,1.909ZM7.834,167.55v.514a.205.205,0,0,1-.206.2H3.892a.2.2,0,0,1-.206-.2v-.514a.2.2,0,0,1,.206-.2H7.628a.205.205,0,0,1,.206.2Zm-3.179-1.136v-3.525H6.866v3.525Zm18.658,1.136v.514a.2.2,0,0,1-.206.2H19.371a.2.2,0,0,1-.206-.2v-.514a.2.2,0,0,1,.206-.2h3.736A.2.2,0,0,1,23.313,167.55Zm-3.179-1.136v-3.525h2.211v3.525Zm3.179-5.034a.581.581,0,0,1-.583.576H4.27a.581.581,0,0,1-.583-.576V161.1H23.313Zm.516-1.208H3.17A1.386,1.386,0,0,1,1.778,158.8a2.47,2.47,0,0,1,2.481-2.452H22.741a2.47,2.47,0,0,1,2.481,2.452A1.386,1.386,0,0,1,23.829,160.172Zm2.227-4.074a3.406,3.406,0,0,1-.228,1.234,3.431,3.431,0,0,0-2.8-1.909V151.1a.626.626,0,0,1,.629-.621h1.775a.626.626,0,0,1,.629.621Zm0,0" transform="translate(0 -137.199)" fill="#fafafa"/><path d="M63.712,10.239a.473.473,0,0,0,.47-.476V4.487A3.518,3.518,0,0,1,67.675.952H77.789a3.518,3.518,0,0,1,3.493,3.535V9.763a.47.47,0,1,0,.94,0V4.487A4.465,4.465,0,0,0,77.789,0H67.675a4.465,4.465,0,0,0-4.433,4.487V9.763a.473.473,0,0,0,.47.476Zm0,0" transform="translate(-59.232)" fill="#fafafa"/></g></svg>