<svg xmlns="http://www.w3.org/2000/svg" width="50" height="50" viewBox="0 0 50 50"><path d="M17.686,2.862a1.508,1.508,0,1,1,1.508,1.508A1.48,1.48,0,0,1,17.686,2.862ZM25.5.5a1.508,1.508,0,1,0,0,3.015A21.793,21.793,0,0,1,47.183,21.832l-11.91-7.487a2.933,2.933,0,0,1,.427,1.533,3.265,3.265,0,0,1-.754,2.085,3.05,3.05,0,0,1-2.362,1.08,2.733,2.733,0,0,1-1.005-.176,3.962,3.962,0,0,1-.653-.327c-.151-.1-.327-.226-.5-.352a.347.347,0,0,0-.1-.075,6.136,6.136,0,0,0-2.186-1.256,10.06,10.06,0,0,0-2.965-.427,7.638,7.638,0,0,0-3.266.7,9.226,9.226,0,0,0-2.814,1.985,9.337,9.337,0,0,0-1.91,2.889,8.575,8.575,0,0,0-.678,3.367,9.013,9.013,0,0,0,.678,3.492,9.143,9.143,0,0,0,4.673,4.824,8.158,8.158,0,0,0,3.317.678,8.547,8.547,0,0,0,2.915-.477,8.216,8.216,0,0,0,2.487-1.407,2.89,2.89,0,0,1,2.387-.628,3.487,3.487,0,0,1,1.759.9,3.072,3.072,0,0,1,.879,2.211,3.9,3.9,0,0,1-.075.779,2.888,2.888,0,0,1-.779,1.432,10.652,10.652,0,0,1-4.623,2.739A17.926,17.926,0,0,1,25.2,40.6a14.012,14.012,0,0,1-5.779-1.206c-.151-.075-.327-.151-.477-.226L31.48,46.58a22.274,22.274,0,0,1-5.955.829A21.969,21.969,0,0,1,9.545,10.374,1.511,1.511,0,0,0,7.359,8.289,25,25,0,1,0,50.5,25.5c0-14.573-11.256-25-25-25ZM13.364,6.907A1.508,1.508,0,1,0,11.857,5.4,1.512,1.512,0,0,0,13.364,6.907Z" transform="translate(-0.5 -0.5)" fill="#da7a2f"/></svg>