<svg xmlns="http://www.w3.org/2000/svg" width="27" height="32" viewBox="0 0 27 32"><g transform="translate(0 0)"><g transform="translate(2.887 22.368)"><path d="M60.8,362.074h3.319v9.632H60.8Zm0,0" transform="translate(-59.778 -362.074)" fill="#1e4751"/><path d="M49.578,483.055H45.647a.713.713,0,0,1-.713-.713v-.547a.713.713,0,0,1,.713-.713h3.931a.713.713,0,0,1,.713.713v.547A.713.713,0,0,1,49.578,483.055Zm0,0" transform="translate(-44.934 -473.436)" fill="#1e4751"/><path d="M314.32,362.074h3.32v9.632h-3.32Zm0,0" transform="translate(-297.432 -362.074)" fill="#1e4751"/></g><path d="M83.757,21.079H65.125V4.185A4.14,4.14,0,0,1,69.218,0H79.664a4.14,4.14,0,0,1,4.093,4.185Zm0,0" transform="translate(-60.941 0)" fill="#da7a2f"/><path d="M247.163,0h-3.389a4.185,4.185,0,0,1,4.185,4.185V21.079h3.389V4.185A4.185,4.185,0,0,0,247.163,0Zm0,0" transform="translate(-228.443)" fill="#da7a2f"/><path d="M4.184,212.154v-9.508a1.158,1.158,0,0,0-1.158-1.158H1.158A1.158,1.158,0,0,0,0,202.647v5.324a4.184,4.184,0,0,0,4.184,4.184Zm0,0" transform="translate(0 -189.065)" fill="#da7a2f"/><path d="M361.656,212.154v-9.508a1.158,1.158,0,0,1,1.158-1.158h1.868a1.158,1.158,0,0,1,1.158,1.158v5.324a4.184,4.184,0,0,1-4.184,4.184Zm0,0" transform="translate(-338.84 -189.065)" fill="#da7a2f"/><path d="M65.072,351.858H46.022a1.1,1.1,0,0,1-1.089-1.11v-2.69H66.16v2.69a1.1,1.1,0,0,1-1.088,1.11Zm0,0" transform="translate(-42.047 -326.384)" fill="#345863"/><path d="M36.982,303.792H15.6a1.946,1.946,0,0,1-1.93-1.962,3.083,3.083,0,0,1,3.057-3.107h19.13a3.082,3.082,0,0,1,3.057,3.107,1.946,1.946,0,0,1-1.93,1.962Zm0,0" transform="translate(-12.79 -280.148)" fill="#bd631d"/><path d="M303.105,483.055h-3.931a.713.713,0,0,1-.713-.713v-.547a.713.713,0,0,1,.713-.713h3.931a.713.713,0,0,1,.713.713v.547A.713.713,0,0,1,303.105,483.055Zm0,0" transform="translate(-279.705 -451.068)" fill="#1e4751"/></g></svg>