<svg xmlns="http://www.w3.org/2000/svg" xmlns:xlink="http://www.w3.org/1999/xlink" width="437.997" height="642.999" viewBox="0 0 437.997 642.999"><defs><clipPath id="a"><rect width="437.997" height="642.999" fill="none"/></clipPath></defs><g clip-path="url(#a)"><g transform="translate(-13720.001 -1434)"><path d="M-12829,643h-406a15.908,15.908,0,0,1-11.315-4.684A15.905,15.905,0,0,1-13251,627V412a32.775,32.775,0,0,0,23.322-9.676A32.776,32.776,0,0,0-13218,379a33.037,33.037,0,0,0-33-33V16a15.889,15.889,0,0,1,4.684-11.312A15.9,15.9,0,0,1-13235,0h406a15.885,15.885,0,0,1,11.314,4.687A15.891,15.891,0,0,1-12813,16V346h0a32.756,32.756,0,0,0-23.315,9.677A32.767,32.767,0,0,0-12846,379a33.036,33.036,0,0,0,33,33V627a15.907,15.907,0,0,1-4.685,11.315A15.9,15.9,0,0,1-12829,643Z" transform="translate(26971 1434)" fill="#fff"/><line x2="369" transform="translate(13754.5 1816.5)" fill="none" stroke="#bbb" stroke-width="1" stroke-dasharray="20"/></g></g></svg>